<svg xmlns="http://www.w3.org/2000/svg" viewBox="0 0 100 140" width="100" height="140">
  <!-- 그림자 효과 (옵션) -->
  <ellipse fill="rgba(0,0,0,0.15)" cx="52" cy="132" rx="10" ry="3"/>
  
  <!-- 메인 물방울 모양 (단순한 플랫 디자인) -->
  <path fill="#3498db" stroke="#2980b9" stroke-width="2" 
        d="M50 15 C50 15 25 35 25 65 C25 85 35 95 50 95 C65 95 75 85 75 65 C75 35 50 15 50 15 Z"/>
  
  <!-- 물방울 끝부분 (아래쪽 뾰족한 부분) -->
  <path fill="#3498db" stroke="#2980b9" stroke-width="2"
        d="M50 95 C50 95 46 98 46 102 C46 106 48 110 50 110 C52 110 54 106 54 102 C54 98 50 95 50 95 Z"/>
  
  <!-- 단순한 하이라이트 (선택사항) -->
  <ellipse fill="rgba(255,255,255,0.4)" cx="42" cy="50" rx="8" ry="12"/>
  <ellipse fill="rgba(255,255,255,0.7)" cx="40" cy="45" rx="3" ry="5"/>
</svg>