<svg xmlns="http://www.w3.org/2000/svg" viewBox="0 0 100 140" width="100" height="140">
  <!-- 외부 핀 모양 (진한 파란색) -->
  <path fill="#2c3e50" d="M50 10 C30 10 15 25 15 45 C15 65 50 130 50 130 C50 130 85 65 85 45 C85 25 70 10 50 10 Z"/>
  
  <!-- 내부 물방울 모양 (흰색) - 더 크고 뚜렷한 물방울 -->
  <path fill="white" stroke="#e0e0e0" stroke-width="1" d="M50 20 C50 20 30 32 30 50 C30 64 38.5 75 50 75 C61.5 75 70 64 70 50 C70 32 50 20 50 20 Z"/>
  
  <!-- 물방울 하이라이트 효과 - 더 크게 -->
  <ellipse fill="rgba(255,255,255,0.6)" cx="44" cy="45" rx="5" ry="8"/>
  <ellipse fill="rgba(255,255,255,0.8)" cx="42" cy="42" rx="2" ry="3"/>
</svg>